<svg xmlns="http://www.w3.org/2000/svg" width="957" height="257" viewBox="0 0 957 257">
  <metadata><?xpacket begin="﻿" id="W5M0MpCehiHzreSzNTczkc9d"?>
<x:xmpmeta xmlns:x="adobe:ns:meta/" x:xmptk="Adobe XMP Core 9.0-c001 79.14ecb42, 2022/12/02-19:12:44        ">
   <rdf:RDF xmlns:rdf="http://www.w3.org/1999/02/22-rdf-syntax-ns#">
      <rdf:Description rdf:about=""/>
   </rdf:RDF>
</x:xmpmeta>
                                                                                                    
                                                                                                    
                                                                                                    
                                                                                                    
                                                                                                    
                                                                                                    
                                                                                                    
                                                                                                    
                                                                                                    
                                                                                                    
                                                                                                    
                                                                                                    
                                                                                                    
                                                                                                    
                                                                                                    
                                                                                                    
                                                                                                    
                                                                                                    
                                                                                                    
                                                                                                    
                           
<?xpacket end="w"?></metadata>
<defs>
    <style>
      .cls-1 {
        fill: #08aac1;
      }

      .cls-1, .cls-2 {
        fill-rule: evenodd;
      }

      .cls-2 {
        fill: #fff;
      }
    </style>
  </defs>
  <path class="cls-1" d="M47,57c1-.929,48-27,48-27s25.109-10.351,43-3,56,28,56,28,19.893,16.628,21,41l1,59s-5.7,29.3-23,41l-44,26s-24.345,13.09-49,2L47,194s-17.514-14.364-20-39V96A65.4,65.4,0,0,1,47,57Zm6,21L87,58s8.823-.964,8-13c0,0,1.82-12.755,21-7l55,30s7.948,6.362,12,0c0,0,15.065-5.995,20,7,0,0,8.678,11.378-3,25,0,0-3.6,2.713-4,11v51s-2.183,11.827-11,15l-37,21s-5.43,3.377-4,9c0,0-.335,18.516-24,6L47,172s-13.029-8.189-1-26V90S48.954,79.079,53,78Zm30,63"/>
  <path class="cls-2" d="M84,141s-9.533-9.544-9-24c0,0-.913-17.306,12-30,0,0,12.587-12.843,32-13,0,0,21.623-1.7,34,14,0,0,9.783,10.363,10,28,0,0,.608,14.424-9,25l-8-6s4.041-3.969,6-18c0,0,1.347-14.983-11-25,0,0-11.195-7.609-24-7,0,0-15.142.981-23,11,0,0-6.753,7.565-8,21,0,0-.172,13.667,5,17.525Z"/>
  <path class="cls-2" d="M114,186s-11.559,3.37-12-11V132s-9.652-10.949-6-21c0,0,5.516-13.315,15-12a11.069,11.069,0,0,1,8,3s3.624-3.362,8-3c0,0,12.554-.724,15,15,0,0,.573,11.741-7,17v47s-0.4,11.586-11,8V127s6.488-4.3,7-11c0,0-.164-6.16-5-5,0,0-3.446.629-7,6,0,0-4.958-6.343-8-6,0,0-2.371-.836-4,2,0,0-4.113,7.915,7,13v60Z"/>
  <path id="p" class="cls-2" d="M277,188V67h49s40.061-.224,39,44c0,0,3.328,37.407-40,42H298v35H277Zm21-55V87h23s22.625,1.775,22,23c0,0,2.849,19.564-20,23H298Z"/>
  <path id="r" class="cls-2" d="M377,188V67h53s39.347-.561,39,43c0,0,1.553,30.034-26,37l25,41H441l-32-57h18s19.954-1.472,20-22c0,0,2.057-21.042-22-22H398V188H377Z"/>
  <path id="a" class="cls-2" d="M475,188L530,67h12l57,121H574l-35-27H510l-12,27H475Zm41-41,20-45,30,65-24-20H516Z"/>
  <path id="s" class="cls-2" d="M600,169l15-15s9.745,16.4,27,17c0,0,18.219-1,18-18,0,0-.216-10.235-16-13,0,0-25.062-6.454-33-16,0,0-7.493-6.351-8-21,0,0-.843-17.621,11-28,0,0,10.833-10.476,27-10,0,0,22.469-.964,37,18L662,99s-8.525-13.213-21-14c0,0-14.947-1.076-17,14,0,0-.886,10.836,12,14l19,7s16.493,4.527,22,17a38.457,38.457,0,0,1,0,31s-5.476,15.195-24,20a52.18,52.18,0,0,1-46-11Z"/>
  <path id="m" class="cls-2" d="M696,180c-0.867-10.4,0-113,0-113s17.472-3.484,41,39c0,0,8.884,18.829,24,32,0,0,9.2-3.118,24-31.981,0,0,19.884-42.077,42-39.019,0,0,.217,102.6,0,113s-21,8-21,8V114l-45,46-44.435-46.033V188S696.867,190.405,696,180Z"/>
  <path id="e" class="cls-2" d="M848,188V67h81s1.949,20.038-9,20H870v31h44s11.723-1.337,11,10c-0.09,8.95-3.79,9.759-11.544,10S870,138,870,138v31h50s9.979-2.138,10,19H848Z"/>
</svg>
