<svg version="1.2" xmlns="http://www.w3.org/2000/svg" viewBox="0 0 257 257" width="257" height="257">
	<title>prasme-b-svg</title>
	<style>
		.s0 { fill: #08aac1 } 
		.s1 { fill: #000000 } 
	</style>
	<path id="Layer" fill-rule="evenodd" class="s0" d="m53 57c1-0.9 48-27 48-27 0 0 25.1-10.4 43-3 17.9 7.4 56 28 56 28 0 0 19.9 16.6 21 41l1 59c0 0-5.7 29.3-23 41l-44 26c0 0-24.3 13.1-49 2l-53-30c0 0-17.5-14.4-20-39v-59q0.7-5.6 2.4-10.9 1.7-5.3 4.2-10.3 2.6-5 6-9.5 3.3-4.5 7.4-8.3zm-1 33v56c-12 17.8 1 26 1 26l73 41c23.7 12.5 24-6 24-6-1.4-5.6 4-9 4-9l37-21c8.8-3.2 11-15 11-15v-51c0.4-8.3 4-11 4-11 11.7-13.6 3-25 3-25-4.9-13-20-7-20-7-4.1 6.4-12 0-12 0l-55-30c-19.2-5.8-21 7-21 7 0.8 12-8 13-8 13l-34 20c-4 1.1-7 12-7 12z"/>
	<path id="Layer" fill-rule="evenodd" class="s1" d="m90 141c0 0-9.5-9.5-9-24 0 0-0.9-17.3 12-30 0 0 12.6-12.8 32-13 0 0 21.6-1.7 34 14 0 0 9.8 10.4 10 28 0 0 0.6 14.4-9 25l-8-6c0 0 4-4 6-18 0 0 1.3-15-11-25 0 0-11.2-7.6-24-7 0 0-15.1 1-23 11 0 0-6.8 7.6-8 21 0 0-0.2 13.7 5 17.5z"/>
	<path id="Layer" fill-rule="evenodd" class="s1" d="m120 186c0 0-11.6 3.4-12-11v-43c0 0-9.7-10.9-6-21 0 0 5.5-13.3 15-12q1.1 0 2.2 0.1 1.1 0.2 2.1 0.6 1 0.4 2 1 0.9 0.5 1.7 1.3c0.5 0.5 3.6-3.4 8-3 0 0 12.6-0.7 15 15 0 0 0.6 11.7-7 17v47c0 0-0.4 11.6-11 8v-59c0 0 6.5-4.3 7-11 0 0-0.2-6.2-5-5 0 0-3.4 0.6-7 6 0 0-5-6.3-8-6 0 0-2.4-0.8-4 2 0 0-4.1 7.9 7 13z"/>
	<path id="p" fill-rule="evenodd" class="s1" d="m283 188v-121h49c0 0 40.1-0.2 39 44 0 0 3.3 37.4-40 42h-27v35zm46-55c22.8-3.4 20-23 20-23 0.6-21.2-22-23-22-23h-23v46z"/>
	<path id="r" fill-rule="evenodd" class="s1" d="m383 188v-121h53c0 0 39.3-0.6 39 43 0 0 1.6 30-26 37l25 41h-27l-32-57h18c0 0 20-1.5 20-22 0 0 2.1-21-22-22h-27v101z"/>
	<path id="a" fill-rule="evenodd" class="s1" d="m481 188l55-121h12l57 121h-25l-35-27h-29l-12 27zm67-41l24 20-30-65-20 45z"/>
	<path id="s" fill-rule="evenodd" class="s1" d="m606 169l15-15c0 0 9.7 16.4 27 17 0 0 18.2-1 18-18 0 0-0.2-10.2-16-13 0 0-25.1-6.5-33-16 0 0-7.5-6.4-8-21 0 0-0.8-17.6 11-28 0 0 10.8-10.5 27-10 0 0 22.5-1 37 18l-16 16c0 0-8.5-13.2-21-14 0 0-14.9-1.1-17 14 0 0-0.9 10.8 12 14l19 7c0 0 16.5 4.5 22 17q1.6 3.7 2.4 7.6 0.9 3.9 0.9 7.9 0 4-0.9 7.9-0.8 3.9-2.4 7.6c-1.1 2.4-5.5 15.2-24 20-4 1-8.1 1.4-12.2 1.4-4.1 0-8.1-0.4-12.1-1.4-4-0.9-7.9-2.4-11.5-4.2-3.7-1.9-7.1-4.1-10.2-6.8z"/>
	<path id="m" fill-rule="evenodd" class="s1" d="m702 180c-0.9-10.4 0-113 0-113 0 0 17.5-3.5 41 39 0 0 8.9 18.8 24 32 0 0 9.2-3.1 24-32 0 0 19.9-42.1 42-39 0 0 0.2 102.6 0 113-0.2 10.4-21 8-21 8v-74l-45 46-44.4-46v74c0 0-19.7 2.4-20.6-8z"/>
	<path id="e" fill-rule="evenodd" class="s1" d="m854 188v-121h81c0 0 1.9 20-9 20h-50v31h44c0 0 11.7-1.3 11 10-0.1 8.9-3.8 9.8-11.5 10-7.8 0.2-43.5 0-43.5 0v31h50c0 0 10-2.1 10 19z"/>
</svg>