<svg xmlns="http://www.w3.org/2000/svg" viewBox="0 0 371.433 239.641"><g data-name="Group 279"><path data-name="Rectangle 175" fill="#002f69" d="M65.548 133.012h178.525v106.629H65.548z"/><g data-name="Group 278"><g data-name="Group 277"><g data-name="Group 243" opacity=".46"><g data-name="Group 242"><g data-name="Group 241"><path d="M65.548 134.079v30.1c10.51-11.211 178.525-16.279 178.525-16.279v-13.821Z" data-name="Path 944" fill="#2374b8"/></g></g></g><path d="M187.264 95.304c7.811-3.391 13.632-11.356 18.067-16.473.131-.151 1.473-4.63 2.814-4.96a.481.481 0 0 1 .6.308c.13.382-.125.611-.379 1.377s-.259 1.69-.008 1.62c.551-.151 3.312-5.127 4.452-6.166.57-.519 1.17-.333-.069 1.675-.368.6-.8 1.21-1.19 1.777-.935 1.341-1.33 2.332-1 2.048.983-.846 4.571-6.069 5.435-5.645.422.207-3.909 5.52-4.851 6.895 1.685-1 5.1-6.273 5.3-5.078.119.741-3.292 4.981-4.23 5.821-1.14 1.021.355.242 1.109-.162.617-.332 2.531-2.247 2.3-.994-.207 1.108-6.218 4.69-8.129 6.424-1.69 1.533-8.425 15.009-15.618 19-4.752 2.636-18.52 3.071-25.615 3.7a5 5 0 0 1-4.042-1.519l-.187-.195a5.007 5.007 0 0 1 4.171-8.447c3.533.381 18.831-.026 21.076-1" data-name="Path 945" fill="#ffb27d"/><path d="M178.981 95.163c-.557-.27-7.307 1.483-10.522 1.076s1.5 11.343 1.5 11.343 8.17-.082 10.259-.6c2.28-.565 1.189-10.644-1.239-11.819" data-name="Path 946" fill="#fff"/><g data-name="Group 246" opacity=".39"><g data-name="Group 245"><g data-name="Group 244"><path d="M174.08 107.484a43.011 43.011 0 0 0 6.14-.5c.592-.146.956-.935 1.129-2.04-.854-.016-1.717-.031-1.854-.046-3.193-.357-7.9-3.842-9.241-6.9a7.26 7.26 0 0 0-1.04-1.7 8.677 8.677 0 0 1-.756-.056c-3.215-.406 1.5 11.343 1.5 11.343l3.059-.475s.416.159 1.06.378" data-name="Path 947" fill="#1d547b"/></g></g></g><path d="m138.226 110.291-7.792 17.423 6.45.384 10.354-17.36Z" data-name="Path 948" fill="#ffb27d"/><path d="m143.384 98.164 8.782 29.728 22.729.307s3.386-17.773 3.386-19.135-8.829-10.906-10.527-12.6-21.987-1.835-24.37 1.7" data-name="Path 949" fill="#fff"/><g data-name="Group 249" opacity=".39"><g data-name="Group 248"><g data-name="Group 247"><path d="m157.618 127.944-14.234-29.779 8.769 29.715Z" data-name="Path 950" fill="#1d547b"/></g></g></g><path d="m143.384 98.165-7.2 13.76 9.124 4.6 1.933-5.79s.768-7.951-3.855-12.573" data-name="Path 951" fill="#fff"/><path d="M146.877 82.196c0 3.177-2.287 5.752-5.109 5.752s-5.109-2.575-5.109-5.752 2.287-5.752 5.109-5.752 5.109 2.575 5.109 5.752" data-name="Path 952" fill="#26004a"/><path d="M161.79 95.647c-2.442-1.423-9.473-1.423-11.3.4s12.237 14.066 18.54 14.066c.643 0-3.753-12.437-7.241-14.47" data-name="Path 953" fill="#320063"/><path d="M161.115 87.538s-1.771 9.4 0 11.172c1.39 1.39 4.408 6.45 5.809 8.5 1.854 2.709-.472 1.747-1.246 1.525-3.922-1.125-12.948-10.567-12.948-10.567l-.348-12.455Z" data-name="Path 954" fill="#ffb27d"/><path d="M153.251 85.896c1.113 3.457 3.052 6.509 5.058 7.71a22.088 22.088 0 0 0 2.021 1.067 50.252 50.252 0 0 1 .784-7.135Z" data-name="Path 955" fill="#ed985f"/><path d="M169.623 109.156s.1-.256 1.28-.256 2.938 1.647 2.938 1.647-.532 1.22-2.324.4-1.894-1.792-1.894-1.792" data-name="Path 956" fill="#320063"/><path d="M158.767 71.163s8.885 9.232 8.221 16.183-9.632 3.115-13.385.3-4.672-17.293 5.164-16.482" data-name="Path 957" fill="#ffb27d"/><path d="M160.826 66.755a4.771 4.771 0 0 1 1.243 5.456c-1.158 2.384-4.292 2.248-7.017 4.292s-2.674 10.559-2.674 10.559-10.814 1.975-8.293-8.243 4.019-7.63 7.153-9.809c2.695-1.875 6.367-5 9.588-2.255" data-name="Path 958" fill="#320063"/><path d="M152.615 94.105a73.372 73.372 0 0 1 7.187 7.565 32.912 32.912 0 0 0 5.411 5.412l3.818 3.035s-4.271-.16-6.191-1.166-1.551-2.117-3.847-2.117a6.31 6.31 0 0 1-4.891-2.157c-1.275-1.275-2.355-1.676-3.444-2.764s-3.491-5.465-2.724-6.232 4.681-1.576 4.681-1.576" data-name="Path 959" fill="#320063"/><path d="M170.173 110.078a1.532 1.532 0 1 1-.764-2.028 1.532 1.532 0 0 1 .764 2.028" data-name="Path 960" fill="#320063"/><path d="M168.035 110.027s-2 .511-2 1.894a2.352 2.352 0 0 1-.819 1.946s1.92.23 2.815-.665 0-3.174 0-3.174" data-name="Path 961" fill="#320063"/><path data-name="Rectangle 179" fill="#2374b8" d="M61.46 127.322h188.142v17.814H61.46z"/><path d="m128.58 116.932-50.034-1.2-9.71-28.606 49.339-.847Z" data-name="Path 962" fill="#003f8c"/><path d="m78.547 115.732 50.034 1.2-.868-2.558c-6.355-.341-19.8-1.7-32.137-7.076-10.755-4.686-18.65-13.765-22.97-20.237l-3.768.065Z" data-name="Path 963" fill="#002f69"/><path d="M98.826 101.823c-4.839 4.759-8.3 12.314-7.652 22.242l-7.271-1.085c1.98-11.32 7.838-18.967 13.993-22.793Z" data-name="Path 964" fill="#2374b8"/><path d="M107.183 127.322H78.954v-5.176h23.055a5.176 5.176 0 0 1 5.176 5.176Z" data-name="Path 965" fill="#003f8c"/><path d="M105.48 127.322H77.249v-5.176h23.055a5.176 5.176 0 0 1 5.176 5.176Z" data-name="Path 966" fill="#002f69"/><path d="M274.294 221.54v9.815l-2.547 3.177-4.056-1.808a17.146 17.146 0 0 0 .523-3.254c.037-1.426-.39-6.261-.39-6.261Z" data-name="Path 967" fill="#ffb27d"/><path d="M274.749 230.036a8.9 8.9 0 0 1 1.555 3.835 13.619 13.619 0 0 1-.125 4.8s-11.874 1.411-16.594.835-5.186-1.367-5.151-2.7 6.391-1.327 8.187-3.031 4.223-5.274 5.378-4.79 1.067 2.622 2.59 2.661 3.434-2.376 4.161-1.611" data-name="Path 968" fill="#bc3f3f"/><path d="M295.025 221.54v9.815l-2.547 3.177-4.056-1.808a17.146 17.146 0 0 0 .525-3.25c.037-1.426-.39-6.261-.39-6.261Z" data-name="Path 969" fill="#ffb27d"/><path d="M295.48 230.037a8.906 8.906 0 0 1 1.554 3.835 13.614 13.614 0 0 1-.124 4.8s-11.874 1.411-16.594.835-5.186-1.367-5.151-2.7 6.391-1.326 8.186-3.031 4.223-5.274 5.378-4.79 1.067 2.622 2.59 2.662 3.435-2.376 4.161-1.611" data-name="Path 970" fill="#bc3f3f"/><path data-name="Rectangle 180" fill="#7f3100" d="M234.299 161.667h34.349v23.388h-34.349z"/><g data-name="Group 252" opacity=".38"><g data-name="Group 251"><g data-name="Group 250"><path d="M258.993 185.055h9.656v-23.388h-6.372a234.639 234.639 0 0 0-3.284 23.388" data-name="Path 971" fill="#001c41"/></g></g></g><path d="M257.152 163.83h-1.94v-5.364a2.155 2.155 0 0 0-2.152-2.153h-4.182a2.154 2.154 0 0 0-2.152 2.153v5.364h-1.94v-5.364a4.1 4.1 0 0 1 4.091-4.092h4.182a4.1 4.1 0 0 1 4.092 4.092Z" data-name="Path 972" fill="#7f3100"/><path d="M249.17 146.554s-2.263 4.122-2.263 5.819-.97 6.143 1.132 6.547 5.981-.889 5.981-.889a7.436 7.436 0 0 0-1.213-5.254c-1.778-2.828.566-6.869.566-6.869Z" data-name="Path 973" fill="#ffb27d"/><path d="M269.539 77.519s-11.8 2.842-13.421 22.24-8.89 48.17-8.89 48.17 6.526 4.111 8.5 3.023c5.847-3.221 4.152-18.374 7.42-25.653Z" data-name="Path 974" fill="#003982"/><g data-name="Group 255" opacity=".38"><g data-name="Group 254"><g data-name="Group 253"><path d="M265.643 106.674c-4.069 17.726-9.487 38.917-13.182 43.907 1.331.494 2.58.75 3.272.369 5.848-3.221 4.153-18.374 7.42-25.653Z" data-name="Path 975" fill="#001c41"/></g></g></g><path d="M272.78 76.571s-5.021-.337-9.627 7.907-5.452 56.829-3.115 62.593c2.68 6.614 7.965 2.631 7.965 2.631s2.8-31.573 1.5-47.665 3.273-25.466 3.273-25.466" data-name="Path 976" fill="#000005"/><path d="M271.436 132.095a17.509 17.509 0 0 1 4.255 5.028c6.462 11.369-.147 90.412-.147 90.412l-9.1-.242s.147-35 .147-50.585c0-15.639-.283-38.4-.283-38.4Z" data-name="Path 977" fill="#002b62"/><path d="M266.294 137.777a63.963 63.963 0 0 1 8.982 15.141c1.1 2.7 12.365 32.133 12.365 75.108h8s.424-31.336 0-47.88c-.352-13.711-3.395-41.833-3.395-46.682l-26.077-1.2Z" data-name="Path 978" fill="#003982"/><g data-name="Group 258" opacity=".38"><g data-name="Group 257"><g data-name="Group 256"><path d="M292.323 135.381c-1.261 0-13.733 1.483-13.733 1.483s.715 11.439 3.681 16.946c1.954 3.628 8.088 5.08 12.048 5.65-.81-9.839-1.733-19.551-2-24.078" data-name="Path 979" fill="#001c41"/></g></g></g><path d="M271.154 77.209a32.915 32.915 0 0 0-6.789 16.73c-.554 6.4 1.94 44.371 1.94 44.371h29.339s2.788-56.858 0-59.647c-1.241-1.241-8.147-2.693-9.941-2.91-5.932-.716-13.122-.328-14.548 1.455" data-name="Path 980" fill="#6edbf4"/><path d="M285.702 75.754s0 4.849-2.425 15.76-2.667 53.342 0 58.192 18.428 2.425 18.428 2.425-1.616-68.705-6.062-73.467a6.332 6.332 0 0 0-1.883-1.5c-3.392-1.717-8.058-1.414-8.058-1.414" data-name="Path 981" fill="#003982"/><g data-name="Group 261" opacity=".38"><g data-name="Group 260"><g data-name="Group 259"><path d="m297.628 85.392-5.411-6.982s-4.315 9.525-2.956 14.926 6.64 18.633 4.872 20.4 4.131-1.143 4.131-1.143Z" data-name="Path 982" fill="#001c41"/></g></g></g><g data-name="Group 264" opacity=".38"><g data-name="Group 263"><g data-name="Group 262"><path d="M281.614 110.181q-.043 1.178-.08 2.38a13.609 13.609 0 0 0 5.532 11.366c4.816 3.547 10.642 7.277 13.941 7.366-.227-5.531-.515-11.659-.869-17.726-5.789-1.012-18.524-3.387-18.524-3.387Z" data-name="Path 983" fill="#001c41"/></g></g></g><path d="M268.002 90.908s3.368 7.6 3.866 11.133 1.347 9.718 1.347 9.718l11.154-.849.848-20Z" data-name="Path 984" fill="#fff"/><path d="M270.681 97.833s-1.335 6.176 1.686 7.748c1.673.87 4.824.006 6.223 1.405s3.025 3.2 3.025 3.2l2.754-4.119-5.092-5.213s-2.243-3.7-3.031-2.909 2.061 3.152.97 3.152-6.536-3.262-6.536-3.262" data-name="Path 985" fill="#ffb27d"/><path d="M293.599 77.088s-1.951.321-3.209 6.667c-1.565 7.9 5.981 21.822 4.2 26.025s-13.226-7.92-13.226-7.92l-.805 2.251-1.971 5.508s15.518 18.75 23.115 17.3 1.288-48.1-8.106-49.826" data-name="Path 986" fill="#003982"/><path d="m271.423 67.543 1.831 14.826 11.531-6.636-6.206-10.835Z" data-name="Path 987" fill="#ffb27d"/><path d="m279.981 67.412-1.4-2.514-7.155 2.645 1.008 8.161a8.359 8.359 0 0 0 2.423-1.07c1.917-1.315 3.844-4.162 5.128-7.223" data-name="Path 988" fill="#ed985f"/><path d="M272.057 49.218s-.357-.146-2.4 2.659a29.908 29.908 0 0 0-3.246 6.668c-1.354 3.4-2.483 7.094-1.463 10.732.537 1.912 8.211 2.432 11.3.786s5.958-6.927 5.776-10.689-8.588-10.89-9.966-10.156" data-name="Path 989" fill="#ffb27d"/><path d="M277.107 67.526c.473 1.006 1.266 1.284 3.667 1.328 3.087.057 6.153-2.283 6.932-6.559 2.381-13.077-10.009-16.268-13.195-17.519a2.516 2.516 0 0 0-2.83.585 4.926 4.926 0 0 1-4.189 1.355c-.673-.109-2.456-.151-2.94.874-1.384 2.936-1.422 5.987 3.8 5.987 11.834 0 7.843 12.008 8.755 13.948" data-name="Path 990" fill="#0b0080"/><path d="M275.702 60.987s.233-3.309 1.974-2.743 2.409 4.113.815 4.862-2.789-2.119-2.789-2.119" data-name="Path 991" fill="#ffb27d"/><path d="M345.234 53.634c-.917.192-9.192.285-9.192 6.3s.12 8.411-1.436 11.044-1.989 13.764 4.535 10.6c1.745-.847.54 5.432.54 5.432s11.2 5.025 14.306 3.708 7.9 1.675 7.9 1.675 4.759-7.616 0-12.375-4.187-4.375-4.187-9.758-.957-3.828-3.23-7.058-3.611-10.75-9.232-9.571" data-name="Path 992" fill="#100062"/><path d="m367.439 149.66-3.872-48.425-3.064.909 5.992 47.517Z" data-name="Path 993" fill="#451b00"/><path d="M334.133 172.87s4.25 44.207 2.11 49.689-5.633 14.907-5.633 14.907h3.931l8.032-10.671s-.193-.491.476-2.631 5.483-25.141 3.744-35.973c-.493-3.073-1.1-17.878-2.617-20.385-3.818-6.33-10.042 1.867-10.042 5.063" data-name="Path 994" fill="#ffb27d"/><path d="M342.877 224.741s.992-.406 1.873 1.667-1.608 12.348-1.608 12.348l-2.025.063s1.378-7.62.911-7.62-2.721 7.756-3.862 8.067-8.633.8-9.8-.363 3.031-3.557 3.031-3.557 3.765.5 4.258.01 7.222-10.616 7.222-10.616" data-name="Path 995" fill="#ed7d2b"/><path d="M349.449 172.87s4.249 44.207 2.11 49.689-5.633 14.907-5.633 14.907h3.931l8.031-10.671s-.193-.491.476-2.631 5.483-25.141 3.744-35.973c-.493-3.073-1.1-17.878-2.616-20.385-3.818-6.33-10.042 1.867-10.042 5.063" data-name="Path 996" fill="#ffb27d"/><path d="M361.156 177.501c-2.115-.373-6.517-1.143-11.46-1.977.2 2.186.5 5.565.819 9.537 2.338.349 7.568.982 11.3.33-.183-2.143-.393-5.045-.658-7.89" data-name="Path 997" fill="#ed985f"/><path d="M345.569 174.834c-4.056-.671-8.153-1.323-11.42-1.793.089.939.53 5.628 1.03 11.787a33.183 33.183 0 0 0 4.294.892 21.959 21.959 0 0 0 7.042-.125c-.245-2.826-.538-7.082-.946-10.763" data-name="Path 998" fill="#ed985f"/><path d="M365.05 182.068v-26.414c0-6.954-2.675-25.234-6.954-34.327s-21.931 0-21.931 0a71.6 71.6 0 0 0-5.1 21.682l-1.026 39.794c12.719 1.976 22.669 2.131 35.011-.735" data-name="Path 999" fill="#003f74"/><g data-name="Group 267" opacity=".38"><g data-name="Group 266"><g data-name="Group 265"><path d="m365.051 159.55-6.321-2.333-.321 8.254s.1 3.807 6.642 6.08Z" data-name="Path 1000" fill="#001c41"/></g></g></g><path d="M332.98 82.906a29.138 29.138 0 0 0-2.307 13.774c.992 10.024 5.358 22.755 4.4 26.76-1.6 6.686 22.482 7.69 23.606-.76.4-3.006-.381-10.526.327-17.331 1.124-10.8 3.693-21.442 3.217-21.733-10.544-6.467-28.248-2.471-29.239-.71" data-name="Path 1001" fill="#6edbf4"/><g data-name="Group 270" style="mix-blend-mode:multiply;isolation:isolate"><g data-name="Group 269"><g data-name="Group 268"><path d="M344.48 85.244a10.994 10.994 0 0 0 3.065 8.435c3.219 3.219 8.1 5.371 12.484 3.862 1.178-7.612 2.548-13.7 2.19-13.924a25.35 25.35 0 0 0-10.15-3.267l-8.181.53Z" data-name="Path 1002" fill="#51d5f4"/></g></g></g><g data-name="Group 273" opacity=".57" style="mix-blend-mode:multiply;isolation:isolate"><g data-name="Group 272"><g data-name="Group 271"><path d="M334.322 115.657a40.3 40.3 0 0 1 .872 5.825 17.422 17.422 0 0 1 4.509-.263c2.747.326 13.514.937 19.031.881.1-1.311.059-3.2.014-5.409l-21.24-3.15Z" data-name="Path 1003" fill="#00b0ef"/></g></g></g><path d="M362.219 83.616s2.3-.133 4.4 10.9-1.417 24.572-3.767 25.776-23.714-1.5-23.714-1.5l.7-7.723s16.471-.883 18.277-2.689c.443-.443-.023-2.585.358-4.926 1.169-7.193 3.741-19.832 3.741-19.832" data-name="Path 1004" fill="#51d5f4"/><g data-name="Group 276" style="mix-blend-mode:multiply;isolation:isolate"><g data-name="Group 275"><g data-name="Group 274"><path d="M365.791 90.733c-1.837-7.218-3.572-7.116-3.572-7.116s-1.5 7.4-2.736 14.092a9 9 0 0 0 2.246-.959 9.923 9.923 0 0 0 4.062-6.017" data-name="Path 1005" fill="#51d5f4"/></g></g></g><path d="M359.002 107.316a19.941 19.941 0 0 0 3.307-2.237c.936-.936 2.741-2.139 2.741-1.4a3.493 3.493 0 0 1-.869 1.707s3.243-1.807 3.61-1.44.535 2.675 0 5.149-7.818 3.573-7.818 3.573Z" data-name="Path 1006" fill="#ffb27d"/><path d="M358.193 224.741s.991-.406 1.873 1.667-1.608 12.348-1.608 12.348l-2.026.063s1.378-7.62.911-7.62-2.721 7.756-3.862 8.067-8.632.8-9.8-.363 3.031-3.557 3.031-3.557 3.765.5 4.258.01 7.222-10.616 7.222-10.616" data-name="Path 1007" fill="#ed7d2b"/><path d="M361.729 82.921c-5.386 17.151-3.743 34.566-1.648 69.652l-1.009.084c-3.715-35.613-6.082-53.055-1.321-70.908Z" data-name="Path 1008" fill="#7f3100"/><path d="M329.211 118.987c7.591 2.074 24.472-2.006 31.292-3.41l-1.6-8.826s-20.012 3.4-22.446 2c-1.2-.694-3.824-7.017-4.389-13.235a44.5 44.5 0 0 1 .915-12.61s-6.827 6.142-6.827 21.788c0 11.939-.281 13.38 3.059 14.292" data-name="Path 1009" fill="#00b0ef"/><path d="M332.956 101.59s1.666 1.728 2.97 3.032a30.425 30.425 0 0 1 3.215 4.645s-2.708.359-3.644.359-3.811-2.006-4.881-2.006-.6-1.538.668-1.137 2.541.668 2.541.668-2.841-2.307-4.145-3.611-.064-2.064 1-1a11.447 11.447 0 0 0 2.273 1.733s-3.744-3.878-3.076-4.547 3.076 1.86 3.076 1.86" data-name="Path 1010" fill="#ffb27d"/><path d="m342.262 69.226-.917 10.892s-3.668 12.928-.722 14.005 7.189-13.508 7.189-13.508v-13.94Z" data-name="Path 1011" fill="#ffb27d"/><path d="M341.696 75.955c2.014-.144 4.343-1.966 6.116-4.494v-4.786l-5.549 2.551Z" data-name="Path 1012" fill="#ed985f"/><path d="M342.263 56.626s-3.23-1.435-4.307 5.025-.257 11.033 2.933 11.512 7.595-3.377 9.15-7.684-5.223-9.535-7.777-8.853" data-name="Path 1013" fill="#ffb27d"/><path d="M363.944 82.94a11.119 11.119 0 0 0-2.058-2.919c-4.759-4.759-4.187-4.374-4.187-9.758s-.957-3.828-3.23-7.059-3.611-10.779-9.232-9.6c-.073.015-6.444 1.132-5.257 3.453 0 0 1.159-.842 3.313 1.909s.948 2.922 3.1 3.879 1.321 4.666 1.321 7.119-.722 9.841-2.7 13.04 1.77 9.351 6.207 11.2c12.978 5.412 15.12-6.458 12.72-11.266" data-name="Path 1014" fill="#003c8e"/><path d="M361.035 164.262h-.245a2.334 2.334 0 0 1-2.333-2.381l.254-12.665h3.625l1.023 12.522a2.334 2.334 0 0 1-2.326 2.524" data-name="Path 1015" fill="#7f3100"/><path d="M365.268 165.211h-.647c-3.708.136-6.211-1.576-6.142-2.965l.65-13.03h7.181a2.931 2.931 0 0 1 2.872 2.346l2.23 10.965c.294 1.446-2.541 2.684-6.144 2.684" data-name="Path 1016" fill="#995327"/><path d="m358.459 161.881.254-12.665h1.138a2.7 2.7 0 0 1 2.69 2.478l.818 10.043c.267 3.266-4.97 3.42-4.9.144" data-name="Path 1017" fill="#7f3100"/><path d="M70.529 239.624H45.586l-4.762-30.64h34.467Z" data-name="Path 1018" fill="#0072e3"/><path d="M75.292 208.983c0 .9-7.69 1.625-17.175 1.625s-17.175-.728-17.175-1.625 7.69-1.625 17.175-1.625 17.175.727 17.175 1.625" data-name="Path 1019" fill="#003972"/><path d="M82.833 140.697c-.085.1-3.416 3.476-7.444 8.477-6.431 7.985-14.956 19.874-17.013 27.592a14.6 14.6 0 0 0-.383 1.9q-.089.7-.176 1.443c-1.216 10.286-2.191 25.775-2.473 30.481-.32-.006-.637-.011-.951-.018.292-4.888 1.353-21.757 2.657-32.033a14.766 14.766 0 0 1 .359-1.823c.177-.685.4-1.4.676-2.14 4.765-12.982 23.183-33.573 24.048-34.538Z" data-name="Path 1020" fill="#64b1ff"/><path d="M59.25 210.606h-.96c.274-1.923 1.543-12.442-.474-30.5q-.184-1.654-.408-3.393-.167-1.312-.358-2.672c-3.376-23.991 1.141-69.88 1.187-70.341l.946.1c-.045.461-4.551 46.234-1.19 70.109l.093.668q.153 1.112.291 2.192c2.507 19.7 1.212 31.38.875 33.839" data-name="Path 1021" fill="#64b1ff"/><path d="m62.077 211.591-.924-.23c4.426-18.722 4.771-61.435 4.774-61.865l.951.008c0 .43-.349 43.256-4.8 62.088" data-name="Path 1022" fill="#64b1ff"/><path d="M57.996 211.493h-.951c0-11.806-12.476-49.624-12.606-49.995l.574.654c.53 1.52 12.983 37.372 12.983 49.341" data-name="Path 1023" fill="#0072e3"/><path d="M45.284 163.402c0 .01 1.944-6.553 1.845-10.206a36 36 0 0 0-.721-7.584c-.27-.99-1.319-.989-1.689-.01.01-.044-2.368-8.973-3.619-9.587-.4-.209-1.574.983-1.777.518-2.055-4.645-9.023-11.6-9.013-11.653q.07 6.154.165 12.159c5.012 8.33 10.129 16.422 14.809 26.362" data-name="Path 1024" fill="#002b54"/><path d="M45.275 163.444c.033-.136-1.3-17.3-3.567-21.354a8.375 8.375 0 0 0-2.242-2.986.9.9 0 0 0-1.5.8v.206c-.011 1.119-1.21 1.607-1.583.649-2.035-5.247-4.074-10.44-6.068-15.873-.016.106-1.962 17.51 5.272 24.981 7.186 7.772 9.68 13.657 9.693 13.581" data-name="Path 1025" fill="#0072e3"/><path d="M57.087 134.723s4.753-4.643 5.963-7.774a26.574 26.574 0 0 0 2-6.863 1.146 1.146 0 0 0-1.865-.978s.886-9.215-.19-10.556c-.345-.429-2.075-.1-2.108-.637-.335-5.4-5.022-15.876-5.022-15.876l-4.504 10.684Z" data-name="Path 1026" fill="#003972"/><path d="M57.087 134.723s4.945-15.421 4.175-20.461a10.228 10.228 0 0 0-1.237-3.993c-.531-.83-1.506-1.12-1.92-.226l-.084.181a1.017 1.017 0 0 1-1.94-.416l-.215-17.768s-8.784 13.966-4.25 25.327 5.471 17.357 5.471 17.357" data-name="Path 1027" fill="#64b1ff"/><path d="M75.752 147.534c.064.027-1-4.321.994-7.072 2.289-3.156 5.566-4.711 9.181-3.617 1.271.386 1.948 2.088 1.543 2.821a30.434 30.434 0 0 1 9.9 2.042 3.476 3.476 0 0 1 1.8 1.847l.012.032c1.02 2.677 4.365 2.389 8.325 8.914 4.846 5.182 4.821 23.089 3.7 23.271a29.409 29.409 0 0 0-7-11.252c-4.941-15.643-19-21.319-28.455-16.986" data-name="Path 1028" fill="#002b54"/><path d="M75.388 148.958c.192-.4 0-3.8 5.8-5.338 4.389-1.163 10.538-1.748 13.749.17a26.412 26.412 0 0 1 4.767 3.086c1.175.954 1.34 2.7.351 2.479l-.2-.04c-1.062-.181-.739 1.716.329 2.6 5.969 4.879 10.83 13.108 11.025 23.862.006-.2-7.551-13.458-18.3-21.526-11.627-8.545-17.414-5.332-17.515-5.288" data-name="Path 1029" fill="#64b1ff"/><path d="m69.408 130.637-.628-1.944s-7.563 12.368-6.818 17.488a10.63 10.63 0 0 0 4.467 7.353Z" data-name="Path 1030" fill="#002b54"/><path d="M69.873 126.542s.651.465.651 2.42-4.187 25.186-4.187 25.186-3.166-5.639-2.7-9.921 5.445-16.894 6.236-17.684" data-name="Path 1031" fill="#64b1ff"/><path d="m65.213 211.492-.731-.148c3.88-21.143-4.106-32.166-4.6-32.814l-4.237-3.49.461-.612 4 3.338c.089.111 9.159 11.642 5.106 33.726" data-name="Path 1032" fill="#0072e3"/><path d="M60.094 177.751c-.054.006.284-5.041-1.053-7.534a13.488 13.488 0 0 0-3.954-4.859c-.827-.542-2.361.031-2.4.881.218-.2-8.084-4.2-10.576-3.168-.738.238-1.634 1.946-2.215 1.906-6.154-1.393-20.783 7.174-20.508 7.866a60.189 60.189 0 0 1 10.019 2.294c11.827-4.16 23.203-2.431 30.687 2.614" data-name="Path 1033" fill="#002b54"/><path d="M60.149 178.035c.022-.262-3.5-11.655-13.391-12.069a15.557 15.557 0 0 0-4.9.145c-1.23.346-2.157 1.265-1.487 1.779l.134.106c.707.578-.469 1.908-1.566 1.821a44.458 44.458 0 0 0-19.55 2.98c.06.41 12.442 6.016 24.354 4.2 12.437-1.116 15.356 1.225 16.41 1.038" data-name="Path 1034" fill="#0072e3"/><path d="m53.21 211.646.452-.091c-2.4-13.079 2.54-19.9 2.843-20.3l2.621-2.159-.285-.378-2.676 2.21c-.055.069-5.462 7.056-2.955 20.717" data-name="Path 1035" fill="#0072e3"/><path d="M56.163 190.931c.033 0 .037-3.273.865-4.814a8.344 8.344 0 0 1 2.446-3.007c.511-.335 1.46.019 1.484.545-.135-.121 5-2.6 6.542-1.96.457.147 1.011 1.2 1.37 1.179 3.807-.862 12.857 4.437 12.687 4.866a37.219 37.219 0 0 0-6.2 1.419c-7.317-2.576-14.568-1.351-19.195 1.771" data-name="Path 1036" fill="#002b54"/><path d="M56.165 191c-.326-.081 4.6-7.174 8.46-7.484a7.072 7.072 0 0 1 3.034.09c.761.214 1.334.782.92 1.1l-.083.066c-.437.357.29 1.18.969 1.127a27.5 27.5 0 0 1 12.093 1.843c-.037.254-7.836 2.52-15.2 1.4-7.693-.69-10.15 2.129-10.188 1.862" data-name="Path 1037" fill="#0072e3"/><path d="M152.942 81.528s-2.073-2.418-2.88-.73-.435 4.913 1.645 3.493 1.235-2.764 1.235-2.764" data-name="Path 1038" fill="#f1956c"/><path d="M77.377 61.05c0 4.282-3.811 7.753-8.512 7.753s-8.512-3.471-8.512-7.753 3.811-7.754 8.512-7.754 8.512 3.471 8.512 7.754" data-name="Path 1039" fill="#fff"/><path d="M83.001 63.997H54.732v-5.448a7.7 7.7 0 0 1 7.7-7.7h12.863a7.7 7.7 0 0 1 7.7 7.7Z" data-name="Path 1040" fill="#024590"/><path d="M57.022 53.019a11.287 11.287 0 0 0-2.29 7.1v3.877H73.11c-11.213 0-14.886-6.738-16.088-10.98" data-name="Path 1041" fill="#002f69"/><path d="M72.067 50.846h-6.405v-8.255a3.203 3.203 0 1 1 6.405 0Z" data-name="Path 1042" fill="#024590"/><path data-name="Rectangle 190" fill="#002f69" d="M65.662 48.449h6.405v2.402h-6.405z"/><path data-name="Rectangle 191" fill="#024590" d="M68.05 0h1.573v45.906H68.05z"/><path d="M22.644 70.372c0 4.282-3.811 7.753-8.512 7.753S5.62 74.654 5.62 70.372s3.811-7.753 8.512-7.753 8.512 3.471 8.512 7.753" data-name="Path 1043" fill="#fff"/><path d="M28.265 73.32H0v-5.446a7.7 7.7 0 0 1 7.7-7.7h12.864a7.7 7.7 0 0 1 7.7 7.7Z" data-name="Path 1044" fill="#024590"/><path d="M2.29 62.341A11.287 11.287 0 0 0 0 69.444v3.877h18.378c-11.214 0-14.886-6.738-16.088-10.979" data-name="Path 1045" fill="#002f69"/><path d="M17.335 60.174H10.93v-8.259a3.203 3.203 0 0 1 6.405 0Z" data-name="Path 1046" fill="#024590"/><path data-name="Rectangle 192" fill="#002f69" d="M10.93 57.772h6.405v2.402H10.93z"/><path data-name="Rectangle 193" fill="#024590" d="M13.318 1.127h1.573v54.102h-1.573z"/><path d="M120.496 45.174c0 4.282-3.811 7.754-8.512 7.754s-8.512-3.471-8.512-7.754 3.811-7.753 8.512-7.753 8.512 3.471 8.512 7.753" data-name="Path 1047" fill="#fff"/><path d="M126.117 48.122H97.852v-5.446a7.7 7.7 0 0 1 7.7-7.7h12.863a7.7 7.7 0 0 1 7.7 7.7Z" data-name="Path 1048" fill="#024590"/><path d="M100.142 37.143a11.287 11.287 0 0 0-2.29 7.1v3.877h18.378c-11.213 0-14.886-6.738-16.088-10.98" data-name="Path 1049" fill="#002f69"/><path d="M115.187 34.975h-6.405v-8.259a3.203 3.203 0 1 1 6.405 0Z" data-name="Path 1050" fill="#024590"/><path data-name="Rectangle 194" fill="#002f69" d="M108.782 32.574h6.405v2.402h-6.405z"/><path data-name="Rectangle 195" fill="#024590" d="M111.169.035h1.573v29.996h-1.573z"/></g></g></g></svg>
